<mxfile host="65bd71144e">
    <diagram id="9bSHRC0DQeq0pP0YiXLf" name="vpp">
        <mxGraphModel dx="603" dy="773" grid="1" gridSize="10" guides="1" tooltips="1" connect="1" arrows="1" fold="1" page="1" pageScale="1" pageWidth="850" pageHeight="1100" math="0" shadow="0">
            <root>
                <mxCell id="0"/>
                <mxCell id="1" parent="0"/>
                <mxCell id="4" value="Testing&amp;nbsp; Environment" style="rounded=1;whiteSpace=wrap;html=1;fillColor=#1ba1e2;strokeColor=#006EAF;fontColor=#ffffff;verticalAlign=bottom;fontSize=14;fontFamily=Helvetica;arcSize=20;portConstraintRotation=0;absoluteArcSize=1;" vertex="1" parent="1">
                    <mxGeometry x="80" y="80" width="600" height="480" as="geometry"/>
                </mxCell>
                <mxCell id="2" value="Container with VPP" style="rounded=1;whiteSpace=wrap;html=1;fillColor=#008a00;strokeColor=none;fontColor=#ffffff;verticalAlign=bottom;fontSize=14;fontFamily=Helvetica;arcSize=20;absoluteArcSize=1;" vertex="1" parent="1">
                    <mxGeometry x="210" y="120" width="320" height="400" as="geometry"/>
                </mxCell>
                <mxCell id="3" value="VPP" style="rounded=1;whiteSpace=wrap;html=1;fillColor=#a20025;strokeColor=none;fontColor=#ffffff;verticalAlign=bottom;fontSize=14;fontFamily=Helvetica;arcSize=20;imageHeight=24;absoluteArcSize=1;" vertex="1" parent="1">
                    <mxGeometry x="250" y="270" width="240" height="210" as="geometry"/>
                </mxCell>
                <mxCell id="19" value="vrf1" style="rounded=1;whiteSpace=wrap;html=1;fillColor=#6a00ff;strokeColor=none;fontColor=#ffffff;verticalAlign=bottom;fontSize=14;fontFamily=Helvetica;arcSize=20;absoluteArcSize=1;" vertex="1" parent="1">
                    <mxGeometry x="373" y="160" width="267" height="280" as="geometry"/>
                </mxCell>
                <mxCell id="5" value="" style="ellipse;whiteSpace=wrap;html=1;fontSize=14;fillColor=#FFFFFF;fontFamily=Helvetica;" vertex="1" parent="1">
                    <mxGeometry x="305" y="330" width="20" height="20" as="geometry"/>
                </mxCell>
                <mxCell id="6" value="vppif&lt;br style=&quot;font-size: 14px;&quot;&gt;192.0.0.1/24" style="text;strokeColor=none;align=center;fillColor=none;html=1;verticalAlign=middle;whiteSpace=wrap;rounded=0;fontSize=14;fontFamily=Helvetica;" vertex="1" parent="1">
                    <mxGeometry x="270" y="360" width="90" height="45" as="geometry"/>
                </mxCell>
                <mxCell id="7" value="" style="ellipse;whiteSpace=wrap;html=1;fontSize=14;fillColor=#FFFFFF;fontFamily=Helvetica;" vertex="1" parent="1">
                    <mxGeometry x="428" y="330" width="20" height="20" as="geometry"/>
                </mxCell>
                <mxCell id="8" value="vlan4000&lt;br style=&quot;font-size: 14px;&quot;&gt;192.0.1.1/24" style="text;strokeColor=none;align=center;fillColor=none;html=1;verticalAlign=middle;whiteSpace=wrap;rounded=0;fontSize=14;fontFamily=Helvetica;" vertex="1" parent="1">
                    <mxGeometry x="393" y="360" width="90" height="45" as="geometry"/>
                </mxCell>
                <mxCell id="14" style="edgeStyle=none;html=1;exitX=0.5;exitY=1;exitDx=0;exitDy=0;fontFamily=Helvetica;fontSize=14;endArrow=none;endFill=0;" edge="1" parent="1" source="10" target="5">
                    <mxGeometry relative="1" as="geometry"/>
                </mxCell>
                <mxCell id="26" style="edgeStyle=orthogonalEdgeStyle;html=1;exitX=0;exitY=0.5;exitDx=0;exitDy=0;entryX=1;entryY=0.5;entryDx=0;entryDy=0;fontFamily=Helvetica;fontSize=14;endArrow=none;endFill=0;" edge="1" parent="1" source="10" target="21">
                    <mxGeometry relative="1" as="geometry"/>
                </mxCell>
                <mxCell id="29" style="edgeStyle=orthogonalEdgeStyle;html=1;exitX=0;exitY=0.5;exitDx=0;exitDy=0;entryX=1;entryY=0.5;entryDx=0;entryDy=0;fontFamily=Helvetica;fontSize=14;endArrow=none;endFill=0;" edge="1" parent="1" source="10" target="27">
                    <mxGeometry relative="1" as="geometry"/>
                </mxCell>
                <mxCell id="10" value="" style="ellipse;whiteSpace=wrap;html=1;fontSize=14;fillColor=#FFFFFF;fontFamily=Helvetica;" vertex="1" parent="1">
                    <mxGeometry x="305" y="210" width="20" height="20" as="geometry"/>
                </mxCell>
                <mxCell id="15" style="edgeStyle=none;html=1;exitX=0.5;exitY=1;exitDx=0;exitDy=0;entryX=0.5;entryY=0;entryDx=0;entryDy=0;fontFamily=Helvetica;fontSize=14;endArrow=none;endFill=0;" edge="1" parent="1" source="11" target="7">
                    <mxGeometry relative="1" as="geometry"/>
                </mxCell>
                <mxCell id="11" value="" style="ellipse;whiteSpace=wrap;html=1;fontSize=14;fillColor=#FFFFFF;fontFamily=Helvetica;" vertex="1" parent="1">
                    <mxGeometry x="428" y="210" width="20" height="20" as="geometry"/>
                </mxCell>
                <mxCell id="12" value="contif&lt;br style=&quot;font-size: 14px;&quot;&gt;192.0.0.254/24" style="text;strokeColor=none;align=center;fillColor=none;html=1;verticalAlign=middle;whiteSpace=wrap;rounded=0;fontSize=14;fontFamily=Helvetica;" vertex="1" parent="1">
                    <mxGeometry x="270" y="165" width="90" height="45" as="geometry"/>
                </mxCell>
                <mxCell id="13" value="contsubif (leaf)&lt;br style=&quot;font-size: 14px;&quot;&gt;192.0.1.254/24" style="text;strokeColor=none;align=center;fillColor=none;html=1;verticalAlign=middle;whiteSpace=wrap;rounded=0;fontSize=14;fontFamily=Helvetica;" vertex="1" parent="1">
                    <mxGeometry x="383" y="165" width="110" height="45" as="geometry"/>
                </mxCell>
                <mxCell id="17" style="edgeStyle=orthogonalEdgeStyle;html=1;exitX=0.5;exitY=0;exitDx=0;exitDy=0;entryX=1;entryY=0.5;entryDx=0;entryDy=0;fontFamily=Helvetica;fontSize=14;endArrow=none;endFill=0;" edge="1" parent="1" source="16" target="11">
                    <mxGeometry relative="1" as="geometry"/>
                </mxCell>
                <mxCell id="16" value="" style="ellipse;whiteSpace=wrap;html=1;fontSize=14;fillColor=#FFFFFF;fontFamily=Helvetica;" vertex="1" parent="1">
                    <mxGeometry x="563" y="330" width="20" height="20" as="geometry"/>
                </mxCell>
                <mxCell id="18" value="goBGP&lt;br style=&quot;font-size: 14px;&quot;&gt;192.0.1.2/24" style="text;strokeColor=none;align=center;fillColor=none;html=1;verticalAlign=middle;whiteSpace=wrap;rounded=0;fontSize=14;fontFamily=Helvetica;" vertex="1" parent="1">
                    <mxGeometry x="528" y="360" width="90" height="45" as="geometry"/>
                </mxCell>
                <mxCell id="25" style="edgeStyle=orthogonalEdgeStyle;html=1;exitX=1;exitY=0.5;exitDx=0;exitDy=0;entryX=0;entryY=0.5;entryDx=0;entryDy=0;fontFamily=Helvetica;fontSize=14;endArrow=none;endFill=0;" edge="1" parent="1" source="20" target="10">
                    <mxGeometry relative="1" as="geometry"/>
                </mxCell>
                <mxCell id="20" value="" style="ellipse;whiteSpace=wrap;html=1;fontSize=14;fillColor=#FFFFFF;fontFamily=Helvetica;" vertex="1" parent="1">
                    <mxGeometry x="135" y="120" width="20" height="20" as="geometry"/>
                </mxCell>
                <mxCell id="21" value="" style="ellipse;whiteSpace=wrap;html=1;fontSize=14;fillColor=#FFFFFF;fontFamily=Helvetica;" vertex="1" parent="1">
                    <mxGeometry x="135" y="210" width="20" height="20" as="geometry"/>
                </mxCell>
                <mxCell id="22" value="vRouter&lt;br style=&quot;font-size: 14px;&quot;&gt;192.0.0.99/24" style="text;strokeColor=none;align=center;fillColor=none;html=1;verticalAlign=middle;whiteSpace=wrap;rounded=0;fontSize=14;fontFamily=Helvetica;" vertex="1" parent="1">
                    <mxGeometry x="100" y="140" width="90" height="45" as="geometry"/>
                </mxCell>
                <mxCell id="23" value="FIP&lt;br&gt;172.16.0.0/24&lt;br&gt;172.16.1.0/24&lt;br&gt;&lt;span style=&quot;text-align: start;&quot;&gt;&lt;font face=&quot;monospace&quot; color=&quot;rgba(0, 0, 0, 0)&quot;&gt;&lt;span style=&quot;font-size: 0px;&quot;&gt;172.16.0.0/24%3CmxGraphModel%3E%3Croot%3E%3CmxCell%20id%3D%220%22%2F%3E%3CmxCell%20id%3D%221%22%20parent%3D%220%22%2F%3E%3CmxCell%20id%3D%222%22%20value%3D%22vRouter%26lt%3Bbr%20style%3D%26quot%3Bfont-size%3A%2014px%3B%26quot%3B%26gt%3B192.0.0.99%2F24%22%20style%3D%22text%3BstrokeColor%3Dnone%3Balign%3Dcenter%3BfillColor%3Dnone%3Bhtml%3D1%3BverticalAlign%3Dmiddle%3BwhiteSpace%3Dwrap%3Brounded%3D0%3BfontSize%3D14%3BfontFamily%3DHelvetica%3B%22%20vertex%3D%221%22%20parent%3D%221%22%3E%3CmxGeometry%20x%3D%2260%22%20y%3D%22160%22%20width%3D%2290%22%20height%3D%2245%22%20as%3D%22geometry%22%2F%3E%3C%2FmxCell%3E%3C%2Froot%3E%3C%2FmxGraphModel%3E&lt;/span&gt;&lt;/font&gt;&lt;/span&gt;" style="text;strokeColor=none;align=center;fillColor=none;html=1;verticalAlign=middle;whiteSpace=wrap;rounded=0;fontSize=14;fontFamily=Helvetica;" vertex="1" parent="1">
                    <mxGeometry x="460" y="260" width="90" height="45" as="geometry"/>
                </mxCell>
                <mxCell id="24" value="TFs&lt;br style=&quot;font-size: 14px;&quot;&gt;192.0.0.11..13/24" style="text;strokeColor=none;align=center;fillColor=none;html=1;verticalAlign=middle;whiteSpace=wrap;rounded=0;fontSize=14;fontFamily=Helvetica;" vertex="1" parent="1">
                    <mxGeometry x="85" y="234" width="120" height="45" as="geometry"/>
                </mxCell>
                <mxCell id="27" value="" style="ellipse;whiteSpace=wrap;html=1;fontSize=14;fillColor=#FFFFFF;fontFamily=Helvetica;" vertex="1" parent="1">
                    <mxGeometry x="135" y="330" width="20" height="20" as="geometry"/>
                </mxCell>
                <mxCell id="28" value="goBGP&lt;br style=&quot;font-size: 14px;&quot;&gt;192.0.0.2/24" style="text;strokeColor=none;align=center;fillColor=none;html=1;verticalAlign=middle;whiteSpace=wrap;rounded=0;fontSize=14;fontFamily=Helvetica;" vertex="1" parent="1">
                    <mxGeometry x="85" y="354" width="120" height="45" as="geometry"/>
                </mxCell>
            </root>
        </mxGraphModel>
    </diagram>
</mxfile>